<svg width="62" height="62" viewBox="0 0 62 62" fill="none" xmlns="http://www.w3.org/2000/svg">
<path d="M50 0H12C5.37258 0 0 5.37258 0 12V50C0 56.6274 5.37258 62 12 62H50C56.6274 62 62 56.6274 62 50V12C62 5.37258 56.6274 0 50 0Z" fill="#C0392B"/>
<path opacity="0.95" d="M31 10L48 17V33C48 40.3333 42.3333 46.6667 31 52C19.6667 46.6667 14 40.3333 14 33V17L31 10Z" fill="white"/>
<path d="M31 14L44 20V33C44 39 39.6667 44.3333 31 49C22.3333 44.3333 18 39 18 33V20L31 14Z" stroke="#C0392B" stroke-width="2"/>
</svg>
